# xmcd
#
# Track frame offsets:
#	150
#	18459
#	30896
#	49133
#	60301
#	73081
#	84564
#	98933
#	116760
#	131713
#	144705
#	164123
#	176494
#	194858
#
# Disc length: 2773 seconds
#
# Revision: 0
# Processed by: cddbd v1.5.1PL0 Copyright (c) Steve Scherf et al.
# Submitted via: dBpowerAMP V4.0
#
DISCID=ce0ad30e
DTITLE=The Walkers - Greatest Hits
DYEAR=1900
DGENRE=Country
TTITLE0=There's No More Corn On The Brasos
TTITLE1=My Darling Helena
TTITLE2=Sister Joanne
TTITLE3=Dance of Love
TTITLE4=Who Killed The Fish
TTITLE5=Gipsy Woman
TTITLE6=Taboo
TTITLE7=Oh, Lonesome Me
TTITLE8=Side By Side
TTITLE9=Jack Of Diamond
TTITLE10=In The Evening
TTITLE11=I've Got A Tiger By The Tail
TTITLE12=I'll Be Your Baby Tonight
TTITLE13=Memphis Tennessee
EXTD=
EXTT0=
EXTT1=
EXTT2=
EXTT3=
EXTT4=
EXTT5=
EXTT6=
EXTT7=
EXTT8=
EXTT9=
EXTT10=
EXTT11=
EXTT12=
EXTT13=
PLAYORDER=
